<svg width="26" height="33" viewBox="0 0 26 33" fill="none" xmlns="http://www.w3.org/2000/svg">
<path d="M11.7485 32.2562C12.0164 32.4476 12.3375 32.5504 12.6668 32.5504C12.9961 32.5504 13.3172 32.4476 13.5851 32.2562C14.0665 31.9158 25.3794 23.7474 25.3335 13.5507C25.3335 6.56662 19.6509 0.884033 12.6668 0.884033C5.68272 0.884033 0.000139393 6.56662 0.000139393 13.5428C-0.0457773 23.7474 11.2671 31.9158 11.7485 32.2562ZM12.6668 4.0507C17.9061 4.0507 22.1668 8.31145 22.1668 13.5586C22.2001 20.5854 15.2191 26.895 12.6668 28.9644C10.1161 26.8934 3.13356 20.5823 3.16681 13.5507C3.16681 8.31145 7.42756 4.0507 12.6668 4.0507Z" fill="#2091F9"/>
</svg>
